<?xml version="1.0" standalone="no"?>
<!DOCTYPE svg PUBLIC "-//W3C//DTD SVG 20010904//EN"
 "http://www.w3.org/TR/2001/REC-SVG-20010904/DTD/svg10.dtd">
<svg version="1.0" xmlns="http://www.w3.org/2000/svg"
 width="364.000000pt" height="366.000000pt" viewBox="0 0 364.000000 366.000000"
 preserveAspectRatio="xMidYMid meet">

<g transform="translate(0.000000,366.000000) scale(0.100000,-0.100000)"
fill="#0000FF" stroke="none">
<path d="M613 3396 c-26 -22 -28 -30 -27 -88 1 -40 11 -87 27 -128 32 -85 405
-843 419 -851 5 -3 9 -9 9 -13 -3 -20 0 -26 9 -21 6 4 7 -1 3 -11 -5 -13 -3
-15 7 -9 9 6 11 4 5 -5 -4 -7 -2 -16 6 -21 11 -7 11 -9 1 -9 -10 0 -10 -5 -2
-20 6 -11 15 -18 20 -15 5 3 15 -3 22 -15 12 -19 23 -20 170 -20 120 0 158 3
158 13 0 8 4 7 10 -3 7 -11 10 -11 10 -2 0 7 4 11 9 7 5 -3 12 3 14 12 3 10 4
-99 4 -242 -2 -259 -2 -260 -26 -293 -49 -65 -154 -91 -227 -56 -19 9 -50 34
-68 55 l-33 39 -7 -97 c-9 -130 -37 -260 -82 -379 -20 -55 -122 -269 -225
-477 -241 -481 -267 -556 -219 -634 55 -90 154 -57 605 204 236 136 615 354
1355 778 528 302 602 347 664 406 80 74 117 142 123 223 4 50 0 69 -19 105
-31 59 -73 81 -158 81 -127 0 -178 -57 -187 -208 -3 -48 -12 -99 -19 -113 -15
-29 -78 -88 -97 -90 -102 -9 -128 -6 -167 20 -73 47 -79 71 -81 348 -1 133 -6
240 -10 237 -5 -2 -15 9 -24 26 -8 16 -19 30 -23 30 -5 0 -16 6 -26 13 -16 12
-16 13 3 13 11 0 17 -4 15 -8 -3 -4 1 -5 9 -2 8 3 18 0 22 -6 5 -8 13 -6 26 6
15 13 19 14 19 3 0 -11 17 -13 85 -11 47 2 85 8 85 13 0 6 10 3 21 -5 19 -13
26 -13 49 -1 15 8 31 11 35 7 5 -4 5 -2 1 5 -4 7 -13 10 -20 7 -8 -3 -26 7
-41 23 -15 15 -24 21 -21 13 5 -10 2 -9 -7 2 -8 10 -17 15 -20 11 -4 -3 -7 -1
-7 6 0 8 -7 11 -15 7 -8 -3 -14 -1 -12 5 1 6 -16 20 -38 32 -22 13 -60 35 -83
51 -24 15 -50 25 -57 22 -10 -4 -11 2 -4 25 5 16 13 44 19 61 32 104 -60 218
-175 218 -56 0 -77 -10 -131 -62 l-41 -39 -189 108 c-104 59 -192 112 -196
118 -4 5 -8 105 -8 221 0 203 -1 212 -23 245 -38 56 -81 79 -150 79 -46 0 -70
-6 -102 -25 -60 -35 -77 -77 -83 -202 -3 -57 -6 -103 -8 -103 -2 0 -146 82
-321 182 -404 231 -491 263 -560 204z m1090 -983 c-7 -2 -21 -2 -30 0 -10 3
-4 5 12 5 17 0 24 -2 18 -5z m-143 -36 c0 -2 -9 -12 -20 -22 -24 -21 -27 -14
-4 9 15 15 24 20 24 13z m-63 -109 c-3 -7 -5 -2 -5 12 0 14 2 19 5 13 2 -7 2
-19 0 -25z m380 -30 c-3 -7 -5 -2 -5 12 0 14 2 19 5 13 2 -7 2 -19 0 -25z
m-781 -14 c-4 -9 -9 -15 -11 -12 -3 3 -3 13 1 22 4 9 9 15 11 12 3 -3 3 -13
-1 -22z m1652 11 c-2 -5 -8 -10 -15 -11 -6 -1 -9 4 -6 12 6 16 27 15 21 -1z
m-859 -60 c1 6 6 3 11 -5 8 -12 10 -10 11 10 1 18 3 20 6 7 4 -16 19 -18 174
-17 136 1 169 4 169 16 0 7 10 18 21 25 17 9 20 8 14 -2 -6 -9 -3 -11 8 -6 11
4 14 2 10 -9 -4 -10 0 -13 13 -8 11 3 8 -1 -6 -10 -14 -8 -32 -24 -40 -36 -8
-13 -20 -28 -27 -35 -7 -8 -11 -88 -12 -261 -1 -137 -4 -264 -8 -282 -8 -46
-68 -107 -120 -122 -83 -25 -176 9 -217 80 -20 33 -21 52 -23 370 0 184 2 322
7 305 4 -16 8 -25 9 -20z m491 23 c0 -6 -6 -5 -15 2 -8 7 -15 14 -15 16 0 2 7
1 15 -2 8 -4 15 -11 15 -16z m220 4 c0 -15 -13 -22 -24 -13 -6 5 -22 11 -36
14 -16 3 -10 5 18 6 23 0 42 -3 42 -7z"/>
<path d="M2273 2176 c0 -19 2 -22 12 -13 7 7 10 18 8 24 -8 21 -20 14 -20 -11z"/>
<path d="M1085 2190 c-3 -5 -1 -10 5 -10 6 0 9 -4 5 -9 -3 -5 -2 -12 3 -15 4
-2 8 4 9 14 2 22 -13 35 -22 20z"/>
<path d="M2932 2154 c-11 -12 -9 -13 7 -11 27 4 35 13 19 20 -7 2 -19 -2 -26
-9z"/>
<path d="M2887 2149 c7 -7 15 -10 18 -7 3 3 -2 9 -12 12 -14 6 -15 5 -6 -5z"/>
</g>
</svg>
